<svg width="41" height="35" viewBox="0 0 41 35" fill="none" xmlns="http://www.w3.org/2000/svg">
<path d="M27.5375 0.35281C26.3446 0.868004 23.1636 3.93342 21.5466 6.123C20.8309 7.12764 20.1417 7.92619 20.0621 7.95195C19.9561 7.95195 18.6042 6.68972 17.0137 5.16989C13.064 1.35744 10.7312 0.275532 9.19375 1.48624C8.61057 1.92416 8.55755 2.18176 8.58406 4.0107C8.61057 5.65933 8.76962 6.45788 9.56486 8.46715C10.095 9.80666 10.7577 11.378 11.0493 11.9447C11.3409 12.5114 11.4735 13.0524 11.3939 13.1297C11.2879 13.207 10.4396 13.4388 9.48534 13.6191C6.62245 14.1343 3.36193 15.2162 2.08954 16.0663C0.101418 17.3543 -0.0311235 19.0544 1.74493 20.2394C3.17638 21.1667 7.89484 22.3774 10.1215 22.3774C10.7312 22.3774 11.447 22.532 11.6855 22.6866C12.1097 22.9957 12.1097 23.1245 11.606 24.4382C10.5722 27.2718 10.0155 29.8478 10.0155 31.7282C10.0155 33.4026 10.095 33.7118 10.6782 34.33C11.9241 35.6437 13.7797 35.0255 16.351 32.4753C17.3053 31.5222 18.6837 29.9766 19.3994 28.9977C20.1417 28.0446 20.8309 27.2718 20.9634 27.2718C21.096 27.2718 22.3684 28.4052 23.7733 29.7705C26.3976 32.3465 28.5713 33.8148 30.0823 34.1239C30.798 34.2527 31.0631 34.1497 31.7788 33.4799C32.6005 32.6814 32.627 32.6041 32.468 30.9297C32.2824 28.9719 31.5932 26.7566 30.2678 23.9745C29.7642 22.9184 29.393 22.0168 29.4195 21.991C29.4726 21.9653 30.2148 21.8107 31.0896 21.6046C37.6901 20.2136 40.5 18.7711 40.5 16.8391C40.5 14.8556 36.8684 13.3357 30.6389 12.7175C29.7907 12.6145 29.0484 12.4342 28.9424 12.3054C28.8629 12.1766 29.0219 11.4553 29.3135 10.7083C30.3208 8.08075 30.798 5.78813 30.8245 3.4955C30.8245 1.30592 30.798 1.17712 30.0823 0.584648C29.234 -0.136627 28.7833 -0.162388 27.5375 0.35281ZM29.393 2.20752C29.8967 3.52127 29.0749 7.59131 27.4579 11.6098C27.1929 12.3054 27.1133 12.3311 25.1517 12.3311L23.1371 12.3054L22.1563 10.9916C21.5996 10.2446 21.149 9.5233 21.149 9.34298C21.149 8.85354 24.1709 5.01533 25.8144 3.41823C27.9351 1.3832 28.9424 1.04832 29.393 2.20752ZM13.1965 3.70158C14.5749 4.68046 19.0283 9.11114 19.0283 9.49754C19.0283 9.62634 18.6042 10.3734 18.1005 11.1462C17.0932 12.6918 16.4835 12.9494 14.2568 12.7948C13.117 12.7175 13.064 12.666 12.3217 11.1977C10.3601 7.33372 9.3528 3.08335 10.2541 2.54239C10.7577 2.25903 11.6855 2.61967 13.1965 3.70158ZM21.149 12.1766C21.149 12.2538 20.7248 12.3311 20.2212 12.3311C19.1874 12.3311 19.1078 12.1766 19.7175 11.3522L20.1417 10.7598L20.6453 11.4038C20.9104 11.7386 21.149 12.0993 21.149 12.1766ZM23.8528 15.7572L24.9131 17.277L24.436 18.3332C24.1709 18.8999 23.6142 19.8015 23.2166 20.3682L22.4744 21.347H20.4863H18.4981L17.2788 19.5696L16.0594 17.7922L16.5365 16.7876C16.8016 16.2466 17.2788 15.3708 17.6234 14.8556C18.2066 13.9025 18.2331 13.9025 20.1417 13.8252C21.202 13.7737 22.2358 13.8509 22.4479 14.0055C22.6334 14.1343 23.2696 14.9329 23.8528 15.7572ZM26.4506 14.0055C26.4506 14.2373 25.6289 15.7314 25.5493 15.6284C25.5228 15.6026 25.2047 15.1647 24.8866 14.701L24.3035 13.8767H25.3638C25.9735 13.8767 26.4506 13.9282 26.4506 14.0055ZM33.3428 14.5207C37.2925 15.2162 39.4397 16.2724 38.9095 17.2512C38.4058 18.1271 34.5887 19.5181 30.4534 20.3424C28.8099 20.6515 28.7568 20.6515 28.2797 20.0333C27.617 19.1832 26.7157 17.5088 26.7157 17.1224C26.7157 16.8391 27.5905 15.0101 28.1206 14.1858C28.3592 13.8509 29.9762 13.9282 33.3428 14.5207ZM15.9534 14.3661C16.1654 14.701 15.3172 16.2208 15.0256 16.0405C14.893 15.9632 14.6014 15.5769 14.3894 15.1647C14.0978 14.598 14.0713 14.3919 14.3364 14.3146C14.8665 14.0828 15.7943 14.1085 15.9534 14.3661ZM13.3555 16.1951C13.8327 16.9679 14.2303 17.7664 14.2568 17.921C14.2568 18.1013 13.9387 18.8999 13.5411 19.6984L12.8254 21.1667L10.5722 20.9864C7.89484 20.8061 4.74036 20.1106 3.2559 19.3893C1.90398 18.7711 1.74493 17.9983 2.77875 17.3028C4.39576 16.2208 9.75042 14.6753 11.5795 14.7525C12.4012 14.7783 12.5868 14.9329 13.3555 16.1951ZM26.4506 19.7757C26.8748 20.5743 26.7687 20.7546 25.9205 20.8834C24.9131 21.0379 24.7541 20.8061 25.1517 19.956C25.5228 19.1575 26.053 19.1059 26.4506 19.7757ZM16.3775 21.0122C16.3775 21.2182 16.0329 21.347 15.4497 21.347C14.4159 21.347 14.3629 21.244 14.84 20.2651L15.1846 19.5696L15.7678 20.1106C16.1124 20.4197 16.3775 20.8061 16.3775 21.0122ZM28.9159 24.5413C30.0292 26.8081 31.3016 30.8009 31.1691 31.6767C31.0366 32.6814 30.3738 32.8359 29.0219 32.1919C27.67 31.5737 24.7276 29.0235 22.978 26.9884L21.8647 25.6747L22.3684 24.7473C22.6334 24.2321 23.1636 23.4851 23.5082 23.0987C24.0914 22.4032 24.2239 22.3517 26.0265 22.429L27.9086 22.5062L28.9159 24.5413ZM18.8428 24.1806C19.3729 24.8504 19.8236 25.5717 19.8236 25.7777C19.7971 26.3444 16.4835 30.466 14.8135 31.9601C12.2422 34.3042 11.447 34.1754 11.5 31.4706C11.5265 30.5175 11.6855 29.2038 11.8446 28.5598C12.5603 25.9581 13.5146 23.2533 13.8327 23.0214C14.0183 22.8669 14.9991 22.8154 16.0064 22.8411L17.8354 22.9442L18.8428 24.1806ZM21.5466 22.8926C21.7587 23.2275 21.202 24.1806 20.8044 24.1806C20.6188 24.1806 20.3272 23.923 20.1152 23.6397C19.8236 23.176 19.8236 23.0472 20.1417 22.8669C20.6188 22.5578 21.3345 22.5835 21.5466 22.8926Z" fill="black"/>
<path d="M19.0813 16.2724C18.2861 17.0967 18.3391 18.1271 19.1874 18.8999C20.1152 19.7242 20.9104 19.7242 21.7852 18.8741C22.6069 18.0498 22.66 17.277 21.9177 16.3496C21.202 15.4738 19.8766 15.4223 19.0813 16.2724Z" fill="black"/>
</svg>
