<svg width="154" height="40" viewBox="0 0 154 40" fill="none" xmlns="http://www.w3.org/2000/svg">
<path d="M39.6257 0.54237C37.8142 0.673542 34.7633 1.29192 32.6848 1.92904C32.2462 2.06021 31.5216 2.28508 31.0449 2.43499C30.0343 2.73481 26.2778 4.21517 24.6569 4.96472C20.5191 6.87607 14.8557 10.6426 12.5866 12.9849C10.8704 14.7651 10.2221 15.9644 10.203 17.426C10.184 20.0869 12.4531 21.3986 18.5932 22.2793C19.3368 22.373 20.2712 22.4667 20.6335 22.4667C21.9683 22.4667 21.339 22.9352 18.7076 23.9471C15.8854 25.0152 11.3662 27.1139 8.73474 28.5755C3.92948 31.2364 0.916656 33.8599 0.916656 35.4152C0.916656 36.5395 2.63282 37.4577 4.74943 37.4577C7.32367 37.4577 12.8154 36.3146 17.4681 34.8155C18.3262 34.5345 18.4978 34.7781 17.7923 35.2653C16.6291 36.0898 13.5019 38.9943 13.5019 39.2566C13.5019 39.9125 14.3981 39.444 16.0761 37.9262C18.4597 35.7712 21.9111 33.2602 22.998 32.8667C25.4197 32.0047 29.6148 30.3182 32.475 29.044C33.1043 28.7629 34.2675 28.2382 35.0493 27.8822C38.1384 26.5143 39.5304 25.7272 39.5304 25.3525C39.5304 24.4717 36.2315 25.1089 32.0937 26.7766C31.2546 27.1139 26.888 29.2314 26.1824 29.6436C25.7629 29.8872 24.5235 30.6368 23.4175 31.3114C21.6441 32.3982 19.375 33.3539 16.8389 34.1035C16.5338 34.1972 15.752 34.422 15.1227 34.6281C11.5378 35.7712 7.11392 36.7081 5.28334 36.7081C3.14767 36.7081 2.07984 35.8649 2.7091 34.6656C3.96762 32.2858 10.9467 27.9759 18.0783 25.2026C19.0699 24.809 20.0614 24.4155 20.2712 24.3218C23.0743 23.1788 24.676 22.7665 28.3753 22.2606C30.8542 21.9233 31.8458 21.6422 32.1509 21.1925C32.3988 20.8177 32.3797 20.7802 31.8839 20.5741C31.2546 20.3305 29.4241 20.5741 27.1549 21.1737C23.9895 22.017 21.4725 22.0732 17.5444 21.3236C14.8367 20.8177 13.5591 20.3117 12.6057 19.3935C10.8704 17.6883 11.4234 15.6458 14.3981 12.9099C19.3368 8.30021 27.727 3.95282 35.0874 2.1539C40.3694 0.860931 42.6958 0.785976 46.8336 1.79787C47.0624 1.85408 47.3103 1.96652 47.3675 2.06021C47.4247 2.1539 47.6154 2.22886 47.787 2.22886C47.9587 2.22886 48.6261 2.60363 49.2553 3.07211C50.4376 3.95282 50.7808 4.084 50.9333 3.67175C51.391 2.39751 47.4057 0.673542 43.4966 0.486156C42.4669 0.429939 40.7317 0.448677 39.6257 0.54237ZM34.8586 27.0202C34.1721 27.3575 32.7992 27.9572 31.8076 28.3507C30.8161 28.7629 29.9199 29.1564 29.8054 29.2501C29.5957 29.4375 28.9474 29.4563 28.9474 29.2501C28.9474 29.1752 29.2334 28.9878 29.5766 28.8566C29.9008 28.7067 30.8923 28.257 31.7695 27.8447C34.706 26.4955 37.3756 25.7647 34.8586 27.0202ZM28.7567 29.475C28.7567 29.5312 28.6804 29.6249 28.566 29.6811C28.4706 29.7373 28.3753 29.6999 28.3753 29.6062C28.3753 29.4937 28.4706 29.4 28.566 29.4C28.6804 29.4 28.7567 29.4375 28.7567 29.475Z" fill="black"/>
<path d="M97.9944 10.9424C97.1364 11.3172 94.8481 13.5471 93.685 15.1399C93.1701 15.8707 92.6743 16.4516 92.6171 16.4703C92.5408 16.4703 91.5683 15.5521 90.4242 14.4465C87.583 11.6732 85.905 10.8862 84.799 11.7669C84.3795 12.0854 84.3414 12.2728 84.3605 13.6033C84.3795 14.8026 84.4939 15.3835 85.066 16.8451C85.4474 17.8195 85.9241 18.9626 86.1338 19.3748C86.3436 19.7871 86.4389 20.1806 86.3817 20.2368C86.3054 20.293 85.6953 20.4617 85.0088 20.5928C82.9494 20.9676 80.604 21.7546 79.6887 22.373C78.2585 23.31 78.1632 24.5467 79.4408 25.4087C80.4705 26.0833 83.8647 26.964 85.4664 26.964C85.905 26.964 86.4199 27.0764 86.5915 27.1889C86.8966 27.4137 86.8966 27.5074 86.5343 28.4631C85.7906 30.5244 85.3902 32.3982 85.3902 33.7662C85.3902 34.9842 85.4474 35.2091 85.8669 35.6588C86.7631 36.6145 88.0979 36.1647 89.9475 34.3096C90.634 33.6163 91.6256 32.4919 92.1404 31.7799C92.6743 31.0865 93.1701 30.5244 93.2654 30.5244C93.3608 30.5244 94.2761 31.3489 95.2867 32.342C97.1745 34.2159 98.7381 35.284 99.825 35.5089C100.34 35.6026 100.531 35.5276 101.045 35.0404C101.637 34.4595 101.656 34.4033 101.541 33.1853C101.408 31.7611 100.912 30.1496 99.9585 28.1258C99.5962 27.3575 99.3292 26.7017 99.3483 26.6829C99.3864 26.6642 99.9204 26.5518 100.55 26.4018C105.298 25.39 107.319 24.3406 107.319 22.9352C107.319 21.4923 104.707 20.3867 100.225 19.937C99.6153 19.862 99.0813 19.7309 99.0051 19.6372C98.9479 19.5435 99.0623 19.0188 99.272 18.4754C99.9966 16.564 100.34 14.8963 100.359 13.2285C100.359 11.6357 100.34 11.542 99.825 11.111C99.2148 10.5863 98.8907 10.5676 97.9944 10.9424ZM99.3292 12.2916C99.6915 13.2472 99.1004 16.208 97.9372 19.1312C97.7465 19.6372 97.6893 19.6559 96.2783 19.6559L94.8291 19.6372L94.1235 18.6815C93.7231 18.1381 93.3989 17.6134 93.3989 17.4822C93.3989 17.1262 95.5727 14.3341 96.755 13.1723C98.2805 11.6919 99.0051 11.4483 99.3292 12.2916ZM87.6784 13.3784C88.6699 14.0905 91.8734 17.3136 91.8734 17.5946C91.8734 17.6883 91.5683 18.2318 91.206 18.7939C90.4814 19.9182 90.0429 20.1056 88.4411 19.9932C87.6212 19.937 87.583 19.8995 87.0491 18.8314C85.638 16.0206 84.9134 12.9287 85.5618 12.5352C85.9241 12.3291 86.5915 12.5914 87.6784 13.3784ZM93.3989 19.5435C93.3989 19.5997 93.0938 19.6559 92.7315 19.6559C91.9879 19.6559 91.9307 19.5435 92.3692 18.9438L92.6743 18.5128L93.0366 18.9813C93.2273 19.2249 93.3989 19.4872 93.3989 19.5435ZM95.3439 22.1482L96.1067 23.2537L95.7634 24.022C95.5727 24.4343 95.1723 25.0901 94.8863 25.5024L94.3524 26.2145H92.9222H91.4921L90.6149 24.9215L89.7378 23.6285L90.081 22.8977C90.2717 22.5042 90.6149 21.8671 90.8628 21.4923C91.2823 20.799 91.3014 20.799 92.6743 20.7427C93.4371 20.7053 94.1807 20.7615 94.3333 20.8739C94.4668 20.9676 94.9244 21.5485 95.3439 22.1482ZM97.2126 20.8739C97.2126 21.0426 96.6215 22.1294 96.5643 22.0545C96.5452 22.0357 96.3164 21.7172 96.0876 21.3799L95.6681 20.7802H96.4308C96.8694 20.7802 97.2126 20.8177 97.2126 20.8739ZM102.17 21.2487C105.012 21.7546 106.556 22.5229 106.175 23.235C105.813 23.8721 103.067 24.884 100.092 25.4836C98.9097 25.7085 98.8716 25.7085 98.5284 25.2588C98.0516 24.6404 97.4033 23.4224 97.4033 23.1413C97.4033 22.9352 98.0326 21.6047 98.4139 21.0051C98.5856 20.7615 99.7487 20.8177 102.17 21.2487ZM89.6615 21.1363C89.814 21.3799 89.2039 22.4854 88.9941 22.3543C88.8988 22.2981 88.689 22.017 88.5365 21.7172C88.3267 21.3049 88.3076 21.155 88.4983 21.0988C88.8797 20.9301 89.5471 20.9489 89.6615 21.1363ZM87.7928 22.4667C88.136 23.0289 88.422 23.6098 88.4411 23.7222C88.4411 23.8534 88.2123 24.4343 87.9263 25.0152L87.4114 26.0833L85.7906 25.9521C83.8647 25.8209 81.5955 25.315 80.5277 24.7903C79.5552 24.3406 79.4408 23.7784 80.1845 23.2725C81.3476 22.4854 85.1995 21.3611 86.5152 21.4173C87.1063 21.4361 87.2398 21.5485 87.7928 22.4667ZM97.2126 25.0714C97.5177 25.6523 97.4415 25.7835 96.8313 25.8772C96.1067 25.9896 95.9922 25.8209 96.2783 25.2026C96.5452 24.6217 96.9266 24.5842 97.2126 25.0714ZM89.9666 25.9709C89.9666 26.1208 89.7187 26.2145 89.2992 26.2145C88.5555 26.2145 88.5174 26.1395 88.8606 25.4274L89.1085 24.9215L89.528 25.315C89.7759 25.5399 89.9666 25.8209 89.9666 25.9709ZM98.986 28.5381C99.7869 30.1871 100.702 33.0916 100.607 33.7287C100.511 34.4595 100.035 34.5719 99.0623 34.1035C98.0898 33.6537 95.9732 31.7986 94.7147 30.3182L93.9138 29.3626L94.2761 28.688C94.4668 28.3132 94.8481 27.7698 95.096 27.4887C95.5155 26.9827 95.6109 26.9453 96.9075 27.0015L98.2614 27.0577L98.986 28.5381ZM91.74 28.2757C92.1213 28.7629 92.4455 29.2876 92.4455 29.4375C92.4264 29.8498 90.0429 32.848 88.8416 33.9348C86.9919 35.64 86.4199 35.5464 86.458 33.5788C86.4771 32.8855 86.5915 31.9298 86.7059 31.4613C87.2207 29.5687 87.9072 27.6011 88.136 27.4325C88.2695 27.32 88.975 27.2826 89.6996 27.3013L91.0154 27.3763L91.74 28.2757ZM93.685 27.3388C93.8375 27.5824 93.4371 28.2757 93.151 28.2757C93.0176 28.2757 92.8078 28.0883 92.6553 27.8822C92.4455 27.5449 92.4455 27.4512 92.6743 27.32C93.0176 27.0952 93.5324 27.1139 93.685 27.3388Z" fill="black"/>
<path d="M91.9116 22.5229C91.3395 23.1226 91.3776 23.8721 91.9878 24.4343C92.6552 25.0339 93.2273 25.0339 93.8565 24.4156C94.4477 23.8159 94.4858 23.2538 93.9519 22.5792C93.437 21.942 92.4836 21.9046 91.9116 22.5229Z" fill="black"/>
<path d="M134.511 13.5096C134.358 13.7532 133.9 14.5777 133.5 15.346L132.775 16.7514L131.402 16.8076C130.373 16.8451 130.01 16.9201 130.01 17.1262C130.01 17.4822 130.678 17.6509 131.46 17.501C131.955 17.426 132.146 17.4635 132.222 17.6883C132.356 18.0069 129.934 24.0408 129.477 24.5842C129.324 24.7529 128.733 25.1276 128.161 25.39C126.902 26.0083 126.597 25.8397 127.036 24.8091C127.455 23.8347 127.417 23.4224 126.883 23.1975C126.502 23.0289 126.235 23.0664 125.339 23.4786C124.728 23.741 124.214 23.9658 124.175 23.9658C124.156 23.9658 124.099 23.7784 124.061 23.5536C123.947 22.7478 123.394 22.9539 122.631 24.097C121.868 25.2213 120.877 26.0271 120.228 26.0271C119.885 26.0271 119.866 25.9334 119.961 25.0901C120.152 23.5911 119.485 23.5911 117.749 25.0714C116.701 25.9896 115.976 26.177 116.224 25.5024C116.472 24.8653 117.463 23.8347 118.207 23.4037C118.855 23.0664 119.065 23.0289 119.446 23.1975C120.038 23.4599 120.038 23.4599 120.171 23.1038C120.324 22.7103 119.79 22.092 119.294 22.092C118.627 22.092 117.215 22.8977 115.995 23.9658C114.641 25.1838 113.154 26.1208 112.849 25.9334C112.563 25.7647 112.62 25.3338 113.059 24.1157C113.364 23.2538 113.402 22.9539 113.23 22.7478C112.925 22.3918 112.429 22.6541 111.628 23.5536C109.702 25.7835 108.082 26.964 108.082 26.1208C108.082 25.9709 108.349 25.2963 108.654 24.6217C109.245 23.3474 109.378 22.5792 109.016 22.3543C108.692 22.1669 108.33 22.6354 107.7 24.1345C106.976 25.8772 106.938 27.0202 107.586 27.4325C108.005 27.7136 108.082 27.6948 108.768 27.3013C109.188 27.0765 109.855 26.608 110.294 26.2707C111.152 25.5961 111.323 25.5211 111.323 25.8959C111.323 26.252 112.143 26.964 112.525 26.964C112.696 26.964 113.23 26.7766 113.707 26.5518L114.565 26.1395L115.004 26.5518C115.633 27.1327 116.415 27.0765 117.616 26.3269L118.646 25.6898L118.932 26.0833C119.084 26.3082 119.237 26.533 119.275 26.5892C119.313 26.6267 119.79 26.6829 120.343 26.6829C120.896 26.7017 121.468 26.7579 121.639 26.8516C121.849 26.9453 122.25 26.7204 122.974 26.1208C124.404 24.9028 125.587 24.1157 125.796 24.2282C125.892 24.3031 125.873 24.7341 125.72 25.2775C125.491 26.102 125.51 26.252 125.777 26.5143C126.159 26.9078 127.207 26.7392 128.313 26.1395C129.19 25.6336 129.438 25.6523 129.438 26.2145C129.438 26.7392 130.43 27.3388 131.326 27.3388C132.165 27.3388 132.775 27.1139 133.881 26.4206C134.263 26.177 134.606 26.0083 134.644 26.0458C134.663 26.0833 134.778 26.2894 134.892 26.4956C135.331 27.2826 137.562 26.9265 138.382 25.9521C138.744 25.5399 139.068 25.5774 139.659 26.1208C140.098 26.533 140.346 26.5892 141.528 26.5892C142.271 26.5892 143.263 26.4581 143.721 26.2894C144.56 26.0083 144.579 26.0083 145.017 26.4768C145.265 26.7579 145.685 26.964 145.952 26.964C146.486 26.964 148.011 26.3082 148.335 25.9147C148.64 25.5586 148.831 25.5774 148.945 26.0271C149.041 26.4206 149.861 26.8141 150.261 26.7017C150.395 26.6455 150.738 26.5705 151.043 26.5143C151.729 26.3644 153.083 25.1464 153.083 24.6966C153.083 24.2094 152.95 24.2469 152.092 24.9965C151.215 25.7835 150.547 26.1208 150.147 25.9709C149.918 25.8772 149.88 25.6523 149.975 24.9028C150.09 24.0033 150.07 23.9658 149.632 23.9658C149.365 23.9658 148.717 24.3593 148.068 24.9028C147.077 25.746 146.219 26.102 146.219 25.6898C146.219 25.2026 147.782 23.5161 148.545 23.1975C148.984 23.0289 149.193 23.0289 149.575 23.235C149.994 23.4411 150.09 23.4411 150.223 23.2163C150.49 22.804 150.452 22.6916 149.937 22.3543C149.537 22.1107 149.365 22.092 148.755 22.2981C147.782 22.5979 146.848 23.2163 146.028 24.0408C145.284 24.8091 144.693 25.1464 143.187 25.6711C141.013 26.4206 139.774 25.8959 140.365 24.4905C140.784 23.4974 141.89 22.6541 142.786 22.6541C143.339 22.6541 143.549 22.5792 143.549 22.373C143.549 22.1669 143.32 22.092 142.558 22.092C141.242 22.092 140.136 22.7291 139.373 23.9658C138.706 25.0152 137.638 25.8022 136.608 25.9709C135.75 26.102 135.712 25.821 136.398 24.3593C137.104 22.879 136.475 22.5229 135.598 23.8721C134.663 25.2775 131.898 26.9078 131.174 26.4581C130.544 26.0646 130.792 24.3031 131.822 21.9983C131.955 21.6797 132.337 20.799 132.661 20.0307C133.004 19.2624 133.366 18.4004 133.5 18.1193C133.786 17.4635 134.492 17.2199 136.036 17.2199C137.714 17.2199 137.581 16.8826 135.884 16.8076C134.205 16.7327 134.129 16.5828 134.873 14.9525C135.14 14.3341 135.35 13.697 135.311 13.5283C135.216 13.0411 134.835 13.0411 134.511 13.5096Z" fill="black"/>
<path d="M41.1512 21.6797C40.0262 21.8483 39.6829 22.9726 40.2931 24.4155C40.4647 24.809 40.522 25.2213 40.4457 25.3712C40.3503 25.5211 39.702 26.0458 38.9774 26.533C37.5282 27.5262 37.204 28.0134 37.6426 28.6317C37.8714 28.9503 38.1193 29.0253 39.0346 29.0253C40.2931 29.0253 41.7233 28.5943 42.2 28.0883C42.4479 27.826 42.5051 27.5449 42.4097 27.0202C42.1237 25.4087 42.1237 25.4274 43.0962 25.0152C43.592 24.809 44.0496 24.6966 44.1068 24.7528C44.2212 24.8653 43.878 25.6898 42.6576 28.2382C42.1428 29.3063 41.7233 30.2058 41.7233 30.2433C41.7233 30.2807 41.2466 31.2926 40.6554 32.4919C39.5113 34.853 39.1872 35.9586 39.6448 35.9586C39.7973 35.9586 40.7698 34.2721 41.9712 31.9298C44.164 27.5824 44.0878 27.6948 45.823 27.4325C47.1578 27.2451 48.321 26.6454 49.0265 25.8022C49.6367 25.0526 50.5901 24.528 51.2957 24.528C51.6198 24.528 51.658 24.6029 51.5245 25.0339C51.4482 25.3337 51.3719 25.9334 51.3719 26.4018L51.3529 27.2451L52.1919 27.3013C52.9165 27.3575 53.1453 27.2638 54.1178 26.5143C55.3382 25.5773 55.6433 25.4649 55.6433 25.9896C55.6433 26.458 56.2344 26.964 56.7492 26.964C56.9781 26.964 57.4548 26.7953 57.8362 26.5892C58.2175 26.3831 58.5989 26.2144 58.6942 26.2144C58.8086 26.2144 58.8849 26.3831 58.8849 26.5892C58.8849 27.2263 59.476 27.0202 61.1731 25.746C63.2707 24.1907 63.7474 24.1157 62.794 25.5211C62.527 25.8959 62.3554 26.3081 62.4126 26.4018C62.6796 26.8328 63.4804 26.5143 64.9487 25.3712C66.6839 24.022 67.2179 23.8346 66.97 24.6591C66.8937 24.9589 66.8174 25.4836 66.8174 25.8397C66.7984 26.4393 66.8556 26.4955 67.3704 26.5517C67.6946 26.5892 68.2285 26.4955 68.5908 26.3456C69.1819 26.102 69.2582 26.102 69.6777 26.5143C70.2116 27.0577 70.9362 27.0764 71.8515 26.5892C73.5295 25.6898 73.377 25.7272 73.7584 26.2144C74.4067 27.0577 76.2373 26.6642 77.267 25.4649C77.7818 24.8653 77.9153 24.3406 77.5721 24.3406C77.4576 24.3406 77.1907 24.5654 76.9619 24.8278C76.3135 25.5398 75.341 26.0645 74.9215 25.9334C74.5974 25.8397 74.5592 25.7085 74.6546 24.884C74.769 23.9845 74.7499 23.9658 74.2732 23.9658C73.93 23.9658 73.377 24.3031 72.5952 24.9964C71.9468 25.5586 71.2985 26.0271 71.165 26.0271C70.4023 26.0271 71.4511 24.4155 72.8049 23.4973C73.4914 23.0289 73.663 22.9914 74.1397 23.16C74.5211 23.3099 74.7308 23.3099 74.8834 23.16C75.1885 22.8602 75.1504 22.6916 74.6164 22.3543C73.7965 21.8296 72.6905 22.2793 70.8409 23.8721C68.1141 26.2144 67.542 26.2332 68.362 23.9283C68.6671 23.1225 68.6671 22.9914 68.4192 22.8415C68.0378 22.5979 67.5992 22.7478 66.2644 23.5161C65.6542 23.8721 65.0822 24.1532 64.9868 24.1532C64.8915 24.1532 64.8343 23.9283 64.8534 23.6285C64.8915 23.16 64.8343 23.1225 64.2622 23.16C63.8809 23.16 63.1944 23.4598 62.5842 23.8534C61.3448 24.6779 61.0778 24.6966 61.2494 24.0033C61.6117 22.5979 61.6117 22.4667 61.2303 22.4667C60.9825 22.4667 60.7155 22.7478 60.4295 23.3099C59.9146 24.3406 59.476 24.7716 58.2366 25.4649C56.7492 26.3081 56.5967 26.0645 57.3022 23.9845C57.4357 23.5348 57.5311 23.0476 57.4739 22.8977C57.245 22.3355 56.6158 22.7478 54.8805 24.528C53.889 25.5586 52.9165 26.4018 52.7449 26.4018C52.2872 26.4018 52.3063 25.746 52.7639 24.7903C53.5076 23.2537 53.6602 22.6541 53.3551 22.4667C52.9355 22.2043 52.8783 22.2231 52.4398 23.0101C52.0775 23.6472 51.8868 23.7784 51.0287 23.9471L50.0562 24.1532L49.446 23.4973C49.1028 23.1413 48.7023 22.8415 48.5689 22.8415C48.4163 22.8415 47.8061 23.0476 47.215 23.2912L46.1281 23.7222L45.9374 23.1975C45.6895 22.4667 45.2891 22.5042 44.8505 23.3099C44.6217 23.7597 43.2487 24.4343 42.2381 24.6216C41.5517 24.7528 41.5135 24.7341 41.2466 24.0782C41.094 23.7222 40.9605 23.1975 40.9605 22.9539C40.9605 22.3355 41.5135 22.0357 42.0093 22.3917C42.5432 22.7852 42.9055 22.729 42.8292 22.2418C42.772 21.7921 42.0474 21.5485 41.1512 21.6797ZM48.5879 24.2656C48.5879 24.6029 45.5751 26.5892 45.0603 26.5892C45.003 26.5892 44.9649 26.4393 44.9649 26.2707C44.9649 25.8584 46.7383 24.1907 47.501 23.8721C48.1494 23.6098 48.5879 23.7784 48.5879 24.2656ZM41.0559 27.1514C41.0559 27.9197 40.522 28.2757 39.3969 28.2757C38.3481 28.2757 38.4244 27.7323 39.5876 26.9827C40.7126 26.2519 41.0559 26.2894 41.0559 27.1514Z" fill="black"/>
</svg>
