<svg width="24" height="24" viewBox="0 0 24 24" fill="none" xmlns="http://www.w3.org/2000/svg">
<path d="M23.5882 16.4439V7.55613C23.5882 6.44129 22.9751 5.41935 21.9748 4.87742L13.9076 0.418064C13.4074 0.139355 12.8588 0 12.2941 0C11.7294 0 11.1808 0.139355 10.6807 0.418064L2.61345 4.86194C1.61311 5.41935 1 6.44129 1 7.55613V16.4439C1 17.5587 1.61311 18.5806 2.61345 19.1226L10.6807 23.5819C11.1808 23.8606 11.7294 24 12.2941 24C12.8588 24 13.4074 23.8606 13.9076 23.5819L21.9748 19.1226C22.9751 18.5806 23.5882 17.5587 23.5882 16.4439ZM10.6807 20.0052L4.22689 16.4439V9.27484L10.6807 12.8826V20.0052ZM12.2941 10.2039L5.90487 6.6271L12.2941 3.09677L18.6834 6.6271L12.2941 10.2039ZM20.3613 16.4439L13.9076 20.0052V12.8826L20.3613 9.27484V16.4439Z" fill="url(#paint0_linear_3474_446)"/>
<defs>
<linearGradient id="paint0_linear_3474_446" x1="-4.45882" y1="12.8705" x2="23.589" y2="12.844" gradientUnits="userSpaceOnUse">
<stop stop-color="#E27878"/>
<stop offset="1" stop-color="#60A4FC"/>
</linearGradient>
</defs>
</svg>
