<svg width="24" height="24" viewBox="0 0 24 24" fill="none" xmlns="http://www.w3.org/2000/svg">
<path d="M2.33333 24V21.6H10.3333V16.8H7.66667C5.82222 16.8 4.25022 16.2148 2.95067 15.0444C1.65022 13.8748 1 12.46 1 10.8C1 9.6 1.36667 8.4948 2.1 7.4844C2.83333 6.4748 3.82222 5.74 5.06667 5.28C5.26667 3.78 5.99467 2.5248 7.25067 1.5144C8.50578 0.5048 9.97778 0 11.6667 0C13.3556 0 14.8276 0.5048 16.0827 1.5144C17.3387 2.5248 18.0667 3.78 18.2667 5.28C19.5111 5.74 20.5 6.4748 21.2333 7.4844C21.9667 8.4948 22.3333 9.6 22.3333 10.8C22.3333 12.46 21.6836 13.8748 20.384 15.0444C19.0836 16.2148 17.5111 16.8 15.6667 16.8H13V21.6H21V24H2.33333ZM7.66667 14.4H15.6667C16.7778 14.4 17.7222 14.05 18.5 13.35C19.2778 12.65 19.6667 11.8 19.6667 10.8C19.6667 10.08 19.4391 9.42 18.984 8.82C18.528 8.22 17.9333 7.78 17.2 7.5L15.8 6.96L15.6 5.58C15.4667 4.68 15.028 3.9248 14.284 3.3144C13.5391 2.7048 12.6667 2.4 11.6667 2.4C10.6667 2.4 9.79467 2.7048 9.05067 3.3144C8.30578 3.9248 7.86667 4.68 7.73333 5.58L7.53333 6.96L6.13333 7.5C5.4 7.78 4.80578 8.22 4.35067 8.82C3.89467 9.42 3.66667 10.08 3.66667 10.8C3.66667 11.8 4.05556 12.65 4.83333 13.35C5.61111 14.05 6.55556 14.4 7.66667 14.4Z" fill="url(#paint0_linear_3474_444)"/>
<defs>
<linearGradient id="paint0_linear_3474_444" x1="-4.15556" y1="12.8705" x2="22.3341" y2="12.8469" gradientUnits="userSpaceOnUse">
<stop stop-color="#E27878"/>
<stop offset="1" stop-color="#60A4FC"/>
</linearGradient>
</defs>
</svg>
