<svg width="25" height="25" viewBox="0 0 25 25" fill="none" xmlns="http://www.w3.org/2000/svg">
<path d="M5.33164 23.8367C4.74439 24.424 3.79226 24.424 3.205 23.8367L1.96322 22.5949C1.37597 22.0077 1.37597 21.0555 1.96322 20.4683L8.49453 13.937C9.08323 13.3483 9.08156 12.3933 8.49082 11.8066L1.97064 5.33175C1.37989 4.7451 1.37823 3.79012 1.96693 3.20142L3.20501 1.96334C3.79226 1.37609 4.74439 1.37609 5.33164 1.96334L11.8629 8.49465C12.4516 9.08335 13.4066 9.08169 13.9933 8.49094L20.4682 1.97077C21.0548 1.38002 22.0098 1.37835 22.5985 1.96705L23.8329 3.20142C24.4216 3.79012 24.4199 4.7451 23.8292 5.33175L17.309 11.8066C16.7182 12.3933 16.7166 13.3483 17.3053 13.937L23.8366 20.4683C24.4238 21.0555 24.4238 22.0077 23.8366 22.5949L22.5985 23.833C22.0098 24.4217 21.0548 24.42 20.4682 23.8293L13.9933 17.3091C13.4066 16.7184 12.4516 16.7167 11.8629 17.3054L5.33164 23.8367Z" fill="black"/>
</svg>
