<svg width="24" height="24" viewBox="0 0 24 24" fill="none" xmlns="http://www.w3.org/2000/svg">
<g clip-path="url(#clip0_3474_448)">
<path d="M12 0C5.6 0 0 5.14667 0 12C0 14.8267 0.986666 17.4267 2.62667 19.48L0 22.12L1.88 24L4.50667 21.3733C6.57333 23.0133 9.17333 24 12 24C15.0667 24 18.1467 22.8267 20.48 20.48C22.8267 18.1467 24 15.0667 24 12V0H12ZM21.3333 12C21.3333 14.4933 20.36 16.84 18.6 18.6C16.84 20.36 14.4933 21.3333 12 21.3333C6.85333 21.3333 2.66667 17.1467 2.66667 12C2.66667 9.46667 3.65333 7.09333 5.46667 5.34667C7.22667 3.61333 9.54667 2.66667 12 2.66667H21.3333V12Z" fill="url(#paint0_linear_3474_448)"/>
<path d="M7.27993 12.84L12.6799 13.3733L9.4266 17.8133C9.27993 18.0267 9.29326 18.32 9.47993 18.5067C9.67993 18.7067 10.0133 18.72 10.2266 18.52L17.1066 12.3467C17.5466 11.9467 17.3066 11.2133 16.7066 11.16L11.3066 10.6267L14.5599 6.18667C14.7066 5.97333 14.6933 5.68 14.5066 5.49333C14.3066 5.29333 13.9733 5.28 13.7599 5.48L6.87993 11.6533C6.45326 12.0533 6.69326 12.7867 7.27993 12.84Z" fill="url(#paint1_linear_3474_448)"/>
</g>
<defs>
<linearGradient id="paint0_linear_3474_448" x1="-5.8" y1="12.8705" x2="24.0008" y2="12.8406" gradientUnits="userSpaceOnUse">
<stop stop-color="#E27878"/>
<stop offset="1" stop-color="#60A4FC"/>
</linearGradient>
<linearGradient id="paint1_linear_3474_448" x1="-5.8" y1="12.8705" x2="24.0008" y2="12.8406" gradientUnits="userSpaceOnUse">
<stop stop-color="#E27878"/>
<stop offset="1" stop-color="#60A4FC"/>
</linearGradient>
<clipPath id="clip0_3474_448">
<rect width="24" height="24" fill="white"/>
</clipPath>
</defs>
</svg>
