<svg width="24" height="24" viewBox="0 0 24 24" fill="none" xmlns="http://www.w3.org/2000/svg">
<path d="M2.23529 20C1.55306 20 1 19.4469 1 18.7647V18.2353C1 17.5531 1.55306 17 2.23529 17V17C2.91753 17 3.47059 17.5531 3.47059 18.2353V18.7647C3.47059 19.4469 2.91753 20 2.23529 20V20ZM2.23529 14C1.55306 14 1 13.4469 1 12.7647V12.2353C1 11.5531 1.55306 11 2.23529 11V11C2.91753 11 3.47059 11.5531 3.47059 12.2353V12.7647C3.47059 13.4469 2.91753 14 2.23529 14V14ZM2.23529 8C1.55306 8 1 7.44694 1 6.76471V6.23529C1 5.55306 1.55306 5 2.23529 5V5C2.91753 5 3.47059 5.55306 3.47059 6.23529V6.76471C3.47059 7.44694 2.91753 8 2.23529 8V8ZM7.44118 20C6.61275 20 5.94118 19.3284 5.94118 18.5V18.5C5.94118 17.6716 6.61275 17 7.44118 17H9.38235C10.2108 17 10.8824 17.6716 10.8824 18.5V18.5C10.8824 19.3284 10.2108 20 9.38235 20H7.44118ZM7.44118 14C6.61275 14 5.94118 13.3284 5.94118 12.5V12.5C5.94118 11.6716 6.61275 11 7.44118 11H20.5C21.3284 11 22 11.6716 22 12.5V12.5C22 13.3284 21.3284 14 20.5 14H7.44118ZM7.44118 8C6.61275 8 5.94118 7.32843 5.94118 6.5V6.5C5.94118 5.67157 6.61275 5 7.44118 5H20.5C21.3284 5 22 5.67157 22 6.5V6.5C22 7.32843 21.3284 8 20.5 8H7.44118Z" fill="black"/>
</svg>
