<svg width="24" height="24" viewBox="0 0 24 24" fill="none" xmlns="http://www.w3.org/2000/svg">
<path d="M2.69595 24C1.56617 24 0.763365 23.4947 0.28753 22.484C-0.189192 21.4724 -0.0731132 20.5333 0.635767 19.6667L8.01255 10.6667V2.66667H6.6834C6.30681 2.66667 5.99091 2.53867 5.73572 2.28267C5.48141 2.02756 5.35425 1.71111 5.35425 1.33333C5.35425 0.955555 5.48141 0.638667 5.73572 0.382667C5.99091 0.127555 6.30681 0 6.6834 0H17.3166C17.6932 0 18.0086 0.127555 18.263 0.382667C18.5182 0.638667 18.6457 0.955555 18.6457 1.33333C18.6457 1.71111 18.5182 2.02756 18.263 2.28267C18.0086 2.53867 17.6932 2.66667 17.3166 2.66667H15.9874V10.6667L23.3642 19.6667C24.0731 20.5333 24.1892 21.4724 23.7125 22.484C23.2366 23.4947 22.4338 24 21.3041 24H2.69595ZM2.69595 21.3333H21.3041L13.3292 11.6V2.66667H10.6708V11.6L2.69595 21.3333Z" fill="#FFE5D5" fill-opacity="0.2"/>
</svg>
