<svg width="24" height="24" viewBox="0 0 24 24" fill="none" xmlns="http://www.w3.org/2000/svg">
<path d="M18.5242 5.25806H16.3065C16.3065 2.90548 14.3216 1 11.871 1C9.42036 1 7.43548 2.90548 7.43548 5.25806H5.21774C3.99798 5.25806 3 6.21613 3 7.3871V20.1613C3 21.3323 3.99798 22.2903 5.21774 22.2903H18.5242C19.744 22.2903 20.7419 21.3323 20.7419 20.1613V7.3871C20.7419 6.21613 19.744 5.25806 18.5242 5.25806ZM11.871 3.12903C13.0907 3.12903 14.0887 4.0871 14.0887 5.25806H9.65323C9.65323 4.0871 10.6512 3.12903 11.871 3.12903ZM18.5242 20.1613H5.21774V7.3871H7.43548V9.51613C7.43548 10.1016 7.93448 10.5806 8.54435 10.5806C9.15423 10.5806 9.65323 10.1016 9.65323 9.51613V7.3871H14.0887V9.51613C14.0887 10.1016 14.5877 10.5806 15.1976 10.5806C15.8075 10.5806 16.3065 10.1016 16.3065 9.51613V7.3871H18.5242V20.1613Z" fill="black"/>
</svg>
