<svg width="25" height="24" viewBox="0 0 25 24" fill="none" xmlns="http://www.w3.org/2000/svg">
<path d="M10.9037 22.189L8.5445 16.9378C8.31878 16.4354 7.91662 16.0333 7.41421 15.8076L2.16308 13.4483C0.785978 12.8297 0.785977 10.8745 2.16307 10.2558L7.4142 7.89656C7.91661 7.67083 8.31878 7.26867 8.5445 6.76626L10.9037 1.51512C11.5224 0.138026 13.4776 0.138027 14.0963 1.51513L16.4555 6.76626C16.6812 7.26867 17.0834 7.67083 17.5858 7.89655L22.8369 10.2558C24.214 10.8745 24.214 12.8296 22.8369 13.4483L17.5858 15.8076C17.0834 16.0333 16.6812 16.4354 16.4555 16.9378L14.0963 22.189C13.4776 23.5661 11.5224 23.5661 10.9037 22.189Z" fill="url(#paint0_linear_3470_46)" stroke="black" stroke-width="0.5"/>
<defs>
<linearGradient id="paint0_linear_3470_46" x1="27" y1="-3" x2="-2" y2="19.5" gradientUnits="userSpaceOnUse">
<stop stop-color="#60A4FC"/>
<stop offset="1" stop-color="#E27878"/>
</linearGradient>
</defs>
</svg>
