<svg width="24" height="24" viewBox="0 0 24 24" fill="none" xmlns="http://www.w3.org/2000/svg">
<path d="M11.6452 1C5.76903 1 1 5.76903 1 11.6452C1 17.5213 5.76903 22.2903 11.6452 22.2903C17.5213 22.2903 22.2903 17.5213 22.2903 11.6452C22.2903 5.76903 17.5213 1 11.6452 1ZM6.69516 18.5645C8.08968 17.5639 9.7929 16.9677 11.6452 16.9677C13.4974 16.9677 15.2006 17.5639 16.5952 18.5645C15.2006 19.5652 13.4974 20.1613 11.6452 20.1613C9.7929 20.1613 8.08968 19.5652 6.69516 18.5645ZM18.1813 17.0955C16.3823 15.6903 14.1148 14.8387 11.6452 14.8387C9.17548 14.8387 6.90806 15.6903 5.10903 17.0955C3.87419 15.6158 3.12903 13.721 3.12903 11.6452C3.12903 6.94 6.94 3.12903 11.6452 3.12903C16.3503 3.12903 20.1613 6.94 20.1613 11.6452C20.1613 13.721 19.4161 15.6158 18.1813 17.0955Z" fill="black"/>
<path d="M11.6451 5.25806C9.59063 5.25806 7.91934 6.92935 7.91934 8.98386C7.91934 11.0384 9.59063 12.7097 11.6451 12.7097C13.6997 12.7097 15.371 11.0384 15.371 8.98386C15.371 6.92935 13.6997 5.25806 11.6451 5.25806ZM11.6451 10.5806C10.7616 10.5806 10.0484 9.86741 10.0484 8.98386C10.0484 8.10031 10.7616 7.38709 11.6451 7.38709C12.5287 7.38709 13.2419 8.10031 13.2419 8.98386C13.2419 9.86741 12.5287 10.5806 11.6451 10.5806Z" fill="black"/>
</svg>
